<?xml version="1.0" standalone="no"?>
<!DOCTYPE svg PUBLIC "-//W3C//DTD SVG 20010904//EN"
 "http://www.w3.org/TR/2001/REC-SVG-20010904/DTD/svg10.dtd">
<svg version="1.0" xmlns="http://www.w3.org/2000/svg"
 width="988.000000pt" height="286.000000pt" viewBox="0 0 988.000000 286.000000"
 preserveAspectRatio="xMidYMid meet">

<g transform="translate(0.000000,286.000000) scale(0.100000,-0.100000)"
fill="#000000" stroke="none">
<path d="M4100 2624 c-157 -118 -288 -214 -292 -214 -5 0 -8 43 -8 95 l0 95
-100 0 -100 0 0 -175 0 -175 -95 -70 -95 -70 -1705 0 -1705 0 0 -950 0 -950
705 0 705 0 0 85 0 85 -615 0 -615 0 0 775 0 775 1654 0 1654 0 451 336 451
336 133 -98 c72 -54 276 -205 452 -336 l319 -238 160 0 159 0 -289 215 c-159
118 -432 322 -608 453 -175 130 -321 238 -325 239 -3 0 -134 -95 -291 -213z"/>
<path d="M5367 2654 c-136 -101 -247 -187 -247 -192 1 -8 123 -100 144 -108 7
-3 84 48 172 113 87 66 164 122 171 126 7 5 135 -85 330 -230 175 -130 378
-281 451 -335 l132 -98 1655 0 1655 0 -2 -772 -3 -773 -612 -3 -613 -2 0 -85
0 -85 640 0 640 0 0 950 0 950 -1642 0 -1643 0 -450 336 c-247 185 -468 348
-490 364 l-40 28 -248 -184z"/>
<path d="M4212 2198 l3 -73 73 -3 72 -3 0 76 0 75 -75 0 -76 0 3 -72z"/>
<path d="M4420 2195 l0 -75 75 0 75 0 0 75 0 75 -75 0 -75 0 0 -75z"/>
<path d="M4217 2073 c-4 -3 -7 -37 -7 -75 l0 -68 75 0 75 0 0 75 0 75 -68 0
c-38 0 -72 -3 -75 -7z"/>
<path d="M4420 2005 l0 -75 75 0 75 0 0 75 0 75 -75 0 -75 0 0 -75z"/>
<path d="M955 1617 c-166 -44 -285 -172 -316 -342 -51 -278 179 -531 454 -500
125 15 208 62 272 158 l35 52 -27 13 c-22 12 -27 12 -34 1 -59 -104 -152 -160
-264 -161 -145 -1 -246 104 -275 286 -13 81 -7 154 21 249 39 132 162 219 290
204 66 -8 116 -36 173 -97 49 -52 49 -52 69 -32 19 20 19 20 -27 67 -93 93
-245 134 -371 102z"/>
<path d="M1732 1614 c-113 -30 -200 -106 -255 -222 -31 -64 -32 -72 -32 -192
0 -119 1 -128 31 -192 40 -84 98 -147 172 -186 239 -127 524 8 581 276 69 325
-194 598 -497 516z m199 -61 c100 -51 145 -167 143 -368 -3 -235 -87 -361
-240 -359 -73 1 -115 22 -161 82 -46 60 -64 129 -70 262 -10 216 48 354 163
395 59 21 105 18 165 -12z"/>
<path d="M4002 1213 c-89 -225 -162 -410 -162 -414 0 -3 15 -3 34 -1 32 4 35
7 73 105 l41 102 139 3 140 3 43 -106 43 -105 79 0 c44 0 77 3 74 8 -2 4 -77
185 -166 402 -89 217 -165 399 -169 403 -4 4 -80 -176 -169 -400z m187 -6 c28
-70 51 -132 51 -137 0 -6 -47 -10 -116 -10 -89 0 -115 3 -111 13 3 6 29 72 58
145 29 73 56 129 60 125 4 -5 30 -65 58 -136z"/>
<path d="M7464 1562 c-12 -31 -85 -216 -162 -410 l-140 -353 35 3 c35 3 36 4
76 106 l41 103 140 -3 140 -3 41 -102 40 -102 77 -3 c43 -2 78 -1 78 2 0 12
-335 820 -340 820 -3 0 -15 -26 -26 -58z m35 -325 c25 -61 50 -127 58 -144
l13 -33 -119 0 -119 0 57 145 c31 79 58 145 61 145 3 0 25 -51 49 -113z"/>
<path d="M2360 1205 l0 -405 30 0 30 0 2 326 3 326 140 -336 c77 -184 142
-336 145 -336 3 0 64 149 135 332 l130 332 3 -321 2 -321 75 -4 75 -3 0 408 0
408 -77 -3 -78 -3 -107 -268 c-58 -148 -108 -271 -110 -273 -3 -2 -42 85 -88
194 -46 108 -98 231 -115 272 l-32 75 -81 3 -82 3 0 -406z"/>
<path d="M3310 1206 l0 -406 75 0 75 0 0 163 0 164 118 6 c64 4 133 11 153 17
99 28 149 100 149 212 0 108 -40 176 -127 219 -44 21 -64 23 -245 27 l-198 4
0 -406z m336 337 c55 -28 84 -82 84 -160 0 -133 -55 -190 -196 -200 l-74 -6 0
198 0 198 74 -5 c46 -3 88 -12 112 -25z"/>
<path d="M4618 1205 l-3 -405 32 0 33 0 2 320 3 320 56 -73 c30 -39 141 -185
246 -323 186 -243 192 -251 222 -246 l31 4 0 404 0 404 -30 0 -30 0 -2 -281
-3 -281 -214 281 -213 281 -64 0 -64 0 -2 -405z"/>
<path d="M5330 1602 c0 -4 61 -101 135 -216 l135 -209 0 -188 0 -189 75 0 75
0 0 205 0 205 130 195 c72 107 130 197 130 200 0 3 -19 5 -42 5 l-43 0 -105
-160 c-58 -88 -107 -160 -111 -160 -3 0 -51 72 -108 160 l-103 160 -84 0 c-46
0 -84 -3 -84 -8z"/>
<path d="M6430 1205 l0 -405 30 0 30 0 2 322 3 322 247 -324 c238 -313 249
-325 280 -324 l33 1 0 404 0 404 -30 0 -30 0 -5 -276 -5 -276 -210 276 -210
276 -68 3 -67 3 0 -406z"/>
<path d="M7937 1603 c-4 -3 -7 -186 -7 -405 l0 -398 35 0 35 0 2 324 3 324
140 -334 c77 -184 142 -334 145 -334 3 0 56 132 119 293 63 161 122 310 132
332 17 39 18 35 18 -282 l1 -323 75 0 75 0 0 405 0 405 -75 0 c-64 0 -76 -3
-85 -20 -6 -11 -56 -133 -111 -272 -55 -139 -102 -254 -104 -256 -1 -2 -44 95
-95 215 -50 120 -103 244 -117 276 l-26 57 -77 0 c-42 0 -80 -3 -83 -7z"/>
<path d="M8897 1603 c-4 -3 -7 -186 -7 -405 l0 -398 246 0 245 0 -3 23 c-3 22
-5 22 -170 25 l-168 2 0 170 0 170 155 0 155 0 0 25 0 25 -155 0 -156 0 3 158
3 157 163 3 162 2 0 25 0 25 -233 0 c-129 0 -237 -3 -240 -7z"/>
</g>
</svg>
